<svg width="32" height="32" viewBox="0 0 32 32" fill="#7B8E98" xmlns="http://www.w3.org/2000/svg">
<path fill-rule="evenodd" clip-rule="evenodd" d="M21.8922 28C22.7391 28 23.211 27.3958 23.211 26.4654V23.3238H23.7917C27.3973 23.3238 29.3332 21.3422 29.3332 17.7898V9.53407C29.3332 5.98163 27.3973 4 23.7917 4H8.20794C4.60238 4 2.6665 5.99372 2.6665 9.53407V17.7898C2.6665 21.3301 4.60238 23.3238 8.20794 23.3238H15.9756L20.1499 27.0334C20.8879 27.6858 21.2993 28 21.8922 28ZM21.3961 25.7887L17.5243 21.9463C17.0646 21.475 16.7258 21.3784 16.0482 21.3784H8.20793C5.77599 21.3784 4.61446 20.1338 4.61446 17.7776V9.534C4.61446 7.17779 5.77599 5.94531 8.20793 5.94531H23.7917C26.2358 5.94531 27.3852 7.17779 27.3852 9.534V17.7776C27.3852 20.1338 26.2358 21.3784 23.7917 21.3784H22.3035C21.6502 21.3784 21.3961 21.6321 21.3961 22.2846V25.7887Z"/>
</svg>
