<svg width="32" height="32" fill="none" xmlns="http://www.w3.org/2000/svg"><path d="M15.334 15.502a.86.86 0 01-.608-.252l-2.32-2.32a.859.859 0 111.215-1.215l1.713 1.712 3.116-3.116a.86.86 0 011.215 1.215l-3.724 3.724a.86.86 0 01-.607.252z" fill="#7B8E98"/><path fill-rule="evenodd" clip-rule="evenodd" d="M16.035 5.25c-4.152 0-7.53 3.379-7.53 7.53 0 4.153 3.378 7.53 7.53 7.53s7.53-3.377 7.53-7.53c0-4.151-3.378-7.53-7.53-7.53zm0 13.342a5.818 5.818 0 01-5.81-5.811 5.818 5.818 0 015.81-5.811 5.818 5.818 0 015.812 5.81 5.818 5.818 0 01-5.812 5.812z" fill="#7B8E98"/><path fill-rule="evenodd" clip-rule="evenodd" d="M27.309 14.768c.12-.68.014-1.378-.293-1.987a3.192 3.192 0 00-.662-3.756 3.192 3.192 0 00-1.907-3.303 3.195 3.195 0 00-1.053-1.71 3.195 3.195 0 00-1.868-.741 3.193 3.193 0 00-3.584-1.304 3.194 3.194 0 00-1.907-.634c-.69 0-1.36.226-1.906.634a3.194 3.194 0 00-2.009.056c-.65.237-1.2.678-1.575 1.248-.68.04-1.339.296-1.868.74a3.194 3.194 0 00-1.054 1.711 3.194 3.194 0 00-1.502 1.335 3.194 3.194 0 00-.404 1.968 3.193 3.193 0 00-.955 1.768c-.12.68-.014 1.378.293 1.988a3.193 3.193 0 00.662 3.755c-.08.677.059 1.37.404 1.968a3.195 3.195 0 001.502 1.335c.107.45.31.874.597 1.238l-2.518 5.269a.86.86 0 00.965 1.209l3.793-.86 1.713 3.49a.86.86 0 00.772.481h.004a.86.86 0 00.771-.489l2.315-4.845 2.316 4.845a.86.86 0 00.77.49h.005a.86.86 0 00.771-.481l1.714-3.491 3.792.86a.86.86 0 00.966-1.21l-2.518-5.268c.286-.364.49-.787.596-1.238a3.194 3.194 0 001.502-1.335c.346-.598.484-1.29.405-1.968a3.194 3.194 0 00.955-1.768zm-1.982-1.459c.256.329.361.752.29 1.161-.073.41-.317.77-.67.991a.86.86 0 00-.362.994 1.472 1.472 0 01-1.092 1.893.86.86 0 00-.68.81 1.472 1.472 0 01-1.674 1.404.86.86 0 00-.916.53 1.472 1.472 0 01-2.053.747.86.86 0 00-1.042.184 1.473 1.473 0 01-2.185 0 .859.859 0 00-1.042-.184 1.473 1.473 0 01-2.053-.748.86.86 0 00-.916-.528 1.473 1.473 0 01-1.674-1.405.86.86 0 00-.68-.81 1.474 1.474 0 01-.968-.703 1.474 1.474 0 01-.125-1.19.86.86 0 00-.362-.994 1.473 1.473 0 01-.38-2.152.86.86 0 000-1.057 1.473 1.473 0 01.38-2.152.86.86 0 00.362-.994 1.474 1.474 0 01.125-1.19c.208-.36.56-.616.968-.703a.86.86 0 00.68-.81 1.473 1.473 0 011.674-1.405.859.859 0 00.916-.529 1.472 1.472 0 012.053-.747.86.86 0 001.042-.183 1.471 1.471 0 012.185 0 .86.86 0 001.042.183 1.473 1.473 0 012.053.747.86.86 0 00.916.53 1.472 1.472 0 011.674 1.404.86.86 0 00.68.81 1.473 1.473 0 011.093 1.893.86.86 0 00.361.994 1.473 1.473 0 01.38 2.152.86.86 0 000 1.057zm-3.998 11.56a.86.86 0 00-.962.459l-1.23 2.508-1.848-3.866c.231-.099.45-.224.653-.375a3.191 3.191 0 003.584-1.305 3.2 3.2 0 00.91-.188l1.617 3.384-2.724-.618zm-9.625.459a.86.86 0 00-.962-.46l-2.724.618 1.617-3.384c.292.106.598.17.91.188.374.57.925 1.011 1.575 1.248.65.236 1.356.252 2.009.057a3.2 3.2 0 00.652.375l-1.847 3.865-1.23-2.507z" fill="#7B8E98"/></svg>