<svg width="24" height="24" fill="none" xmlns="http://www.w3.org/2000/svg"><path fill-rule="evenodd" clip-rule="evenodd" d="M17.517 22c1.943 0 3.002-1.008 3.002-2.931V14.07c.957-.183 1.481-.916 1.481-1.985V9.522c0-1.242-.689-2.026-1.954-2.026h-2.18c.576-.56.916-1.292.916-2.117C18.782 3.405 17.198 2 15.213 2c-1.47 0-2.683.804-3.218 2.24C11.46 2.803 10.257 2 8.787 2 6.792 2 5.219 3.405 5.219 5.38c0 .824.329 1.556.904 2.116h-2.17C2.752 7.496 2 8.28 2 9.522v2.564c0 1.07.514 1.802 1.47 1.985v4.998C3.47 20.992 4.54 22 6.483 22h11.034zM11.152 7.497H9.558c-1.697 0-2.602-.987-2.602-2.046 0-1.1.833-1.75 1.933-1.75 1.265 0 2.263.966 2.263 2.585v1.211zm3.29 0h-1.604V6.286c0-1.619 1.008-2.585 2.273-2.585 1.1 0 1.922.65 1.922 1.75 0 1.059-.925 2.046-2.59 2.046zm-3.352 5.079H4.375c-.514 0-.72-.214-.72-.723V9.746c0-.509.206-.712.72-.712h6.715v3.542zm8.545 0H12.91V9.034h6.725c.514 0 .71.203.71.712v2.107c0 .51-.196.723-.71.723zm-8.545 7.897H6.463c-.854 0-1.337-.478-1.337-1.323v-5.038h5.964v6.361zm6.437 0H12.91v-6.361h5.954v5.038c0 .845-.484 1.323-1.337 1.323z" fill="#7B8E98"/></svg>