<svg width="32" height="32" fill="none" xmlns="http://www.w3.org/2000/svg"><path fill-rule="evenodd" clip-rule="evenodd" d="M21.892 28c.847 0 1.32-.604 1.32-1.535v-3.141h.58c3.605 0 5.541-1.982 5.541-5.534V9.534C29.333 5.982 27.397 4 23.792 4H8.208C4.603 4 2.667 5.994 2.667 9.534v8.256c0 3.54 1.936 5.534 5.541 5.534h7.768l4.174 3.71c.738.652 1.15.966 1.742.966zm-.496-2.211l-3.872-3.843c-.46-.471-.798-.568-1.476-.568h-7.84c-2.432 0-3.593-1.244-3.593-3.6V9.534c0-2.356 1.161-3.589 3.593-3.589h15.584c2.444 0 3.593 1.233 3.593 3.589v8.244c0 2.356-1.15 3.6-3.593 3.6h-1.488c-.654 0-.908.254-.908.907v3.504z" fill="#7B8E98"/></svg>