<svg width="80" height="80" fill="none" xmlns="http://www.w3.org/2000/svg"><path fill-rule="evenodd" clip-rule="evenodd" d="M40 6.667c18.41 0 33.334 14.924 33.334 33.333 0 18.41-14.924 33.334-33.334 33.334C21.59 73.334 6.667 58.41 6.667 40 6.667 21.59 21.591 6.667 40 6.667zm0 5.667C24.72 12.334 12.334 24.72 12.334 40c0 15.28 12.386 27.667 27.666 27.667 15.28 0 27.667-12.387 27.667-27.667 0-15.28-12.387-27.666-27.667-27.666zm6.787 21c-1.327 0-2.403 1.11-2.403 2.48 0 6.73 5.307 9.92 13.214 9.92 1.326 0 2.402-1.111 2.402-2.48 0-1.37-1.076-2.48-2.402-2.48-5.604 0-8.409-1.686-8.409-4.96 0-1.37-1.075-2.48-2.402-2.48zm-11.171 2.48c0-1.37-1.076-2.48-2.403-2.48s-2.402 1.11-2.402 2.48l-.018.436c-.243 2.987-3.042 4.523-8.39 4.523-1.327 0-2.403 1.11-2.403 2.48 0 1.37 1.076 2.48 2.402 2.48 7.907 0 13.214-3.188 13.214-9.92zm15.916 19.41c-3.057-2.448-7.127-3.826-11.436-3.826-4.42 0-8.587 1.45-11.665 4.013-1.075.894-1.244 2.519-.377 3.628a2.447 2.447 0 003.515.39c2.17-1.806 5.225-2.87 8.527-2.87 3.222 0 6.21 1.012 8.372 2.743a2.448 2.448 0 003.508-.458c.846-1.127.647-2.748-.444-3.62z" fill="#ECEFF1"/></svg>