<?xml version="1.0" encoding="UTF-8"?> <svg xmlns="http://www.w3.org/2000/svg" width="16" height="16" fill="none"><path fill-rule="evenodd" clip-rule="evenodd" d="M12.952 13.332c1.087 0 1.715-.604 1.715-1.8V5.126c0-1.19-.634-1.793-1.896-1.793H3.048c-1.087 0-1.715.598-1.715 1.793v6.408c0 1.201.634 1.799 1.897 1.799h9.722zm-4.94-4.347c-.241 0-.477-.11-.73-.36l-4.56-4.324c.133-.052.29-.081.471-.081h9.614c.187 0 .35.029.483.093L8.743 8.625c-.26.25-.495.36-.73.36zm-5.749 2.647c-.006-.03-.006-.064-.006-.1V5.068L5.73 8.341l-3.466 3.29zm11.48-.018l-3.448-3.273 3.448-3.256v6.53zm-.936.83H3.193c-.169 0-.32-.023-.44-.075l3.61-3.43.393.371c.423.4.827.569 1.256.569.423 0 .833-.169 1.256-.569l.393-.371 3.605 3.424a1.132 1.132 0 01-.46.081z" fill="#7B8E98"></path></svg> 