<?xml version="1.0" encoding="UTF-8"?> <svg xmlns="http://www.w3.org/2000/svg" width="24" height="24" fill="none"><path fill-rule="evenodd" clip-rule="evenodd" d="M11.99 2C16.405 2 20 5.501 20 9.795c0 1.585-.492 3.116-1.422 4.448l-.084.117a.669.669 0 01-.033.039l-.031.03-5.483 7.11a1.21 1.21 0 01-.957.461c-.316 0-.607-.12-.84-.328l-.14-.14-5.437-7.096a.525.525 0 01-.088-.11l-.03-.055-.176-.256a7.648 7.648 0 01-1.252-3.595l-.02-.321L4 9.776C4 5.488 7.588 2 11.99 2zm0 1.659c-3.473 0-6.31 2.75-6.31 6.136 0 1.251.4 2.472 1.127 3.496l.02.02.046.068 5.117 6.663 5.167-6.717.007-.02a6.095 6.095 0 001.129-3.223l.007-.287c0-3.38-2.831-6.136-6.31-6.136zM12 12a2.5 2.5 0 100-5 2.5 2.5 0 000 5z" fill="#7B8E98"></path></svg> 