<?xml version="1.0" encoding="UTF-8"?> <svg xmlns="http://www.w3.org/2000/svg" width="16" height="16" fill="none"><path fill-rule="evenodd" clip-rule="evenodd" d="M11.911 14.665c1.193 0 1.977-.32 2.666-1.097a3.96 3.96 0 00.156-.17c.41-.457.6-.907.6-1.337 0-.49-.286-.947-.893-1.37l-1.983-1.377c-.614-.422-1.33-.47-1.902.096l-.525.525c-.157.156-.293.163-.443.068-.368-.232-1.111-.88-1.616-1.384-.531-.525-1.043-1.111-1.315-1.54-.089-.157-.082-.287.075-.444l.518-.524c.572-.573.525-1.296.102-1.902L5.974 2.225c-.423-.607-.88-.886-1.37-.893-.43-.007-.88.191-1.336.6l-.17.15C2.32 2.777 2 3.562 2 4.74c0 1.95 1.2 4.322 3.402 6.524 2.188 2.188 4.567 3.401 6.51 3.401zm.007-1.05c-1.738.035-3.967-1.301-5.733-3.06C4.406 8.783 3.01 6.479 3.043 4.74c.014-.75.28-1.397.811-1.86.048-.041.082-.075.13-.11.204-.177.422-.272.62-.272s.375.075.504.28L6.431 4.76c.143.211.157.45-.055.661l-.6.6c-.47.47-.436 1.043-.095 1.5a18.05 18.05 0 001.588 1.806c.518.525 1.343 1.261 1.875 1.656.457.341 1.03.375 1.5-.095l.6-.6c.21-.211.442-.197.66-.061l1.984 1.322c.205.136.28.307.28.511 0 .198-.096.416-.273.62-.04.049-.068.083-.109.13-.464.532-1.111.791-1.868.805z" fill="#7B8E98"></path></svg> 